<?xml version="1.0" standalone="no"?>
<!DOCTYPE svg PUBLIC "-//W3C//DTD SVG 20010904//EN"
 "http://www.w3.org/TR/2001/REC-SVG-20010904/DTD/svg10.dtd">
<svg version="1.0" xmlns="http://www.w3.org/2000/svg"
 width="260.000000pt" height="260.000000pt" viewBox="0 0 260.000000 260.000000"
 preserveAspectRatio="xMidYMid meet">
<metadata>
Created by potrace 1.14, written by Peter Selinger 2001-2017
</metadata>
<g transform="translate(0.000000,260.000000) scale(0.100000,-0.100000)"
fill="#000000" stroke="none">
<path d="M186 2060 c-4 -7 32 -66 39 -62 14 6 18 0 5 -8 -10 -6 -11 -10 -2
-10 6 0 12 -6 12 -14 0 -9 7 -13 20 -11 11 2 20 -2 20 -8 0 -9 2 -9 8 -1 5 9
11 7 21 -4 12 -13 12 -14 0 -10 -8 3 -22 1 -33 -4 -17 -9 -17 -12 10 -34 22
-18 24 -23 9 -18 -17 5 -16 3 5 -16 14 -12 20 -19 14 -16 -7 3 -5 -9 5 -29 9
-22 21 -33 29 -30 7 2 10 1 7 -4 -3 -5 -1 -12 5 -16 6 -4 7 -11 4 -17 -4 -6
-2 -8 3 -5 13 8 26 -20 17 -35 -4 -6 0 -16 8 -22 15 -11 18 -17 18 -36 0 -5 4
-10 9 -10 5 0 7 9 4 20 -7 27 23 38 45 16 10 -10 12 -16 4 -16 -7 0 -12 5 -12
10 0 6 -6 10 -13 10 -8 0 -14 -7 -14 -15 0 -8 5 -15 11 -15 6 0 5 -5 -2 -12
-7 -7 -12 -19 -12 -27 0 -14 1 -14 10 -1 9 13 14 7 11 -12 0 -5 5 -8 11 -8 9
0 8 -4 -2 -10 -11 -7 -11 -10 -2 -10 7 0 11 -4 8 -9 -3 -4 2 -17 10 -27 15
-18 15 -18 11 2 -4 17 0 22 19 22 29 0 29 1 4 -28 -15 -18 -17 -26 -9 -37 13
-15 19 -12 23 9 6 34 18 57 33 63 14 5 14 2 -2 -15 -19 -21 -19 -21 10 -18 21
2 29 -1 27 -10 -1 -8 2 -11 8 -7 6 3 8 11 5 16 -4 5 -1 9 6 9 7 0 9 3 6 7 -4
3 0 15 10 25 9 10 11 18 5 18 -6 0 -17 -10 -23 -22 -8 -14 -14 -18 -16 -11 -7
20 -4 28 10 28 6 0 13 6 13 13 3 22 4 23 23 12 18 -9 19 -8 11 23 -9 30 -8 31
6 12 12 -16 16 -17 23 -6 5 8 7 21 3 29 -3 10 -1 13 6 8 6 -3 13 -2 17 4 3 5
1 10 -4 10 -6 0 -11 5 -11 11 0 6 6 9 13 6 7 -3 19 4 26 15 7 11 8 17 2 13 -6
-3 -11 1 -11 10 0 11 5 15 15 11 9 -3 19 3 25 14 6 11 8 20 5 20 -4 0 1 7 9
16 9 8 14 20 10 25 -3 5 0 8 8 7 8 -2 13 6 12 19 0 12 4 19 9 16 6 -4 8 0 5 8
-3 8 -9 22 -13 32 -4 10 -3 17 5 17 6 0 9 -4 5 -9 -11 -18 17 -23 33 -6 16 17
16 17 -1 12 -10 -4 -15 -3 -12 2 3 6 -3 14 -12 20 -10 6 -13 11 -6 11 6 0 15
-4 18 -10 3 -5 11 -10 16 -10 6 0 7 5 3 12 -4 6 -3 8 4 4 6 -3 18 4 26 16 11
15 12 24 5 29 -6 3 -9 15 -7 25 3 18 -5 19 -119 19 -76 0 -123 4 -123 10 0 5
-4 4 -9 -4 -6 -9 -11 -10 -15 -2 -4 6 -14 11 -22 11 -8 0 -12 -4 -9 -10 4 -6
-2 -7 -17 -1 -15 5 -31 5 -41 0 -11 -7 -17 -6 -17 1 0 5 -5 10 -11 10 -5 0 -7
-6 -3 -12 5 -9 2 -9 -9 1 -14 11 -17 11 -17 0 0 -12 -2 -12 -9 0 -7 11 -9 11
-14 0 -4 -10 -6 -10 -6 -1 -1 6 -6 12 -12 12 -5 0 -8 -3 -5 -8 2 -4 -11 -8
-29 -8 -19 0 -32 3 -29 8 3 4 -7 8 -21 8 -14 0 -24 -4 -21 -9 6 -9 -7 -9 -34
2 -21 8 -101 14 -104 7z m601 -193 c0 -8 -6 -14 -13 -14 -7 0 -11 4 -8 8 2 4
-2 10 -8 12 -7 3 -4 6 8 6 11 1 21 -5 21 -12z m-27 -38 c0 -6 -4 -7 -10 -4 -5
3 -10 11 -10 16 0 6 5 7 10 4 6 -3 10 -11 10 -16z m-20 -20 c0 -6 -4 -7 -10
-4 -5 3 -10 11 -10 16 0 6 5 7 10 4 6 -3 10 -11 10 -16z m-344 -44 c1 -8 -2
-13 -7 -9 -5 3 -9 12 -9 21 0 19 13 9 16 -12z m14 -61 c0 -8 -5 -12 -10 -9 -6
4 -8 11 -5 16 9 14 15 11 15 -7z m254 -12 c3 -5 -1 -9 -9 -9 -8 0 -12 4 -9 9
3 4 7 8 9 8 2 0 6 -4 9 -8z m-84 -62 c0 -5 -4 -10 -10 -10 -5 0 -10 5 -10 10
0 6 5 10 10 10 6 0 10 -4 10 -10z"/>
<path d="M1759 1693 l-216 -368 218 -3 c121 -1 317 -1 437 0 l218 3 -108 185
c-260 444 -323 550 -328 550 -3 0 -103 -165 -221 -367z m395 -27 c91 -156 166
-286 166 -290 0 -3 -153 -6 -340 -6 -187 0 -340 3 -340 6 0 14 336 582 341
578 4 -2 82 -132 173 -288z"/>
<path d="M893 2029 c-2 -17 1 -18 13 -9 17 15 18 30 1 30 -7 0 -13 -9 -14 -21z"/>
<path d="M1015 1970 c-9 -10 -14 -24 -10 -29 3 -6 1 -11 -4 -11 -13 0 -61 -74
-66 -101 -2 -11 -6 -23 -9 -28 -4 -5 4 -7 16 -4 21 4 21 3 5 -7 -10 -6 -24 -9
-32 -6 -10 3 -12 0 -8 -11 4 -10 2 -14 -3 -10 -6 3 -18 -7 -27 -23 -11 -18
-14 -31 -7 -35 11 -7 10 -55 -2 -55 -4 0 -8 6 -8 13 0 8 -4 7 -10 -3 -9 -13
-10 -13 -11 0 0 9 -5 6 -12 -8 -8 -17 -8 -25 1 -31 7 -4 8 -12 1 -21 -8 -13
-10 -13 -19 0 -9 14 -14 7 -11 -13 1 -4 -6 -10 -14 -13 -12 -5 -13 -9 -4 -20
10 -12 8 -13 -7 -8 -16 6 -17 5 -6 -7 18 -19 15 -39 -6 -39 -25 0 -42 -19 -42
-48 0 -13 -4 -21 -9 -18 -5 3 -18 -10 -29 -28 l-21 -35 22 -3 c12 -2 172 -1
355 2 184 3 340 1 348 -3 8 -4 14 -4 14 1 0 5 -10 12 -22 16 -39 10 -656 7
-663 -4 -9 -15 -34 0 -28 17 5 12 7 12 15 1 6 -9 7 -5 3 12 -5 23 -5 23 8 8
13 -16 39 -18 290 -18 250 0 276 2 279 17 2 11 14 17 35 18 18 1 30 -2 27 -7
-3 -4 2 -8 10 -8 10 0 13 6 10 15 -6 14 -23 20 -53 16 -7 -2 -10 3 -6 9 4 6
16 8 28 5 12 -2 16 -2 10 1 -7 3 -13 12 -13 19 0 7 -9 23 -21 36 -11 13 -18
18 -14 12 3 -7 1 -13 -5 -13 -6 0 -8 10 -4 25 4 18 3 25 -6 23 -7 -2 -15 3
-18 11 -3 8 0 11 7 7 6 -4 11 -5 11 -2 0 3 -8 10 -19 15 -15 9 -18 7 -16 -13
2 -13 -3 -23 -9 -23 -15 0 -16 59 -1 69 6 4 2 8 -9 8 -12 0 -16 -5 -12 -15 3
-8 0 -15 -5 -15 -11 0 -9 16 7 54 5 15 4 17 -6 11 -8 -5 -11 -4 -6 3 7 12 -13
62 -26 62 -5 0 -6 -5 -2 -12 4 -7 3 -8 -5 -4 -9 6 -9 11 0 22 9 12 8 14 -7 11
-11 -1 -24 -6 -30 -9 -6 -4 -11 -1 -11 7 0 8 3 13 6 11 3 -2 12 2 19 10 11 12
10 14 -3 14 -8 0 -15 5 -15 11 0 5 6 7 13 3 9 -5 9 -4 1 5 -9 10 -17 10 -32 2
-31 -16 -46 -13 -61 12 -13 21 -13 22 6 5 21 -19 48 -25 38 -9 -3 5 0 13 6 17
8 4 9 3 5 -4 -5 -8 -1 -10 10 -5 14 5 15 7 1 15 -9 5 -14 15 -11 23 5 11 -1
15 -21 15 -15 0 -24 4 -20 10 4 6 10 8 15 5 4 -3 6 4 3 16 -3 12 -19 29 -35
39 -16 10 -25 21 -20 24 6 3 13 0 15 -6 4 -9 6 -10 6 -1 2 21 -16 23 -34 3z
m49 -39 c4 -5 -3 -7 -14 -4 -23 6 -26 13 -6 13 8 0 17 -4 20 -9z m-24 -21 c3
-1 8 -2 12 -1 4 0 5 -5 2 -12 -5 -15 -34 -19 -34 -5 0 4 -9 8 -21 8 -11 0 -18
4 -15 8 4 7 40 8 56 2z m-83 -82 c-3 -7 -5 -2 -5 12 0 14 2 19 5 13 2 -7 2
-19 0 -25z m-3 -74 c11 -28 7 -32 -39 -36 -35 -2 -42 -1 -30 8 8 6 12 14 8 17
-3 4 -1 7 5 7 7 0 12 -4 12 -10 0 -5 9 -10 21 -10 11 0 17 5 14 10 -4 6 -11 8
-16 5 -10 -7 -12 8 -2 18 11 11 20 8 27 -9z m-74 -135 c0 -10 -2 -19 -4 -19
-2 0 -11 -3 -20 -6 -9 -3 -16 -1 -16 5 0 6 5 10 11 9 6 -2 14 3 16 10 3 7 1
12 -4 11 -4 -1 -15 -1 -23 0 -13 1 -13 3 -1 10 20 13 41 2 41 -20z m-36 -51
c-2 -3 -13 -6 -24 -5 -24 2 -18 13 9 13 11 0 18 -4 15 -8z m-49 -77 c-3 -6
-11 -11 -17 -11 -6 0 -6 6 2 15 14 17 26 13 15 -4z m525 5 c0 -3 -4 -8 -10
-11 -5 -3 -10 -1 -10 4 0 6 5 11 10 11 6 0 10 -2 10 -4z"/>
<path d="M845 1690 c-3 -5 -1 -10 4 -10 6 0 11 5 11 10 0 6 -2 10 -4 10 -3 0
-8 -4 -11 -10z"/>
<path d="M562 1523 c-10 -4 -10 -8 -1 -19 6 -8 16 -14 21 -14 7 0 6 5 -1 13
-6 8 -8 17 -4 20 7 8 4 8 -15 0z"/>
<path d="M750 1519 c0 -5 5 -7 10 -4 6 3 10 8 10 11 0 2 -4 4 -10 4 -5 0 -10
-5 -10 -11z"/>
<path d="M529 1483 c0 -5 -2 -16 -4 -25 -2 -10 1 -18 6 -18 6 0 7 -6 3 -12 -5
-9 -2 -9 9 1 9 7 17 19 17 26 0 8 3 15 8 18 4 2 1 2 -5 1 -7 -2 -13 1 -13 6 0
12 -20 14 -21 3z m21 -23 c0 -5 -2 -10 -4 -10 -3 0 -8 5 -11 10 -3 6 -1 10 4
10 6 0 11 -4 11 -10z"/>
<path d="M1315 1421 c-3 -6 -11 -9 -16 -6 -5 4 -9 1 -9 -4 0 -13 10 -14 30 -1
8 5 12 12 8 15 -3 4 -9 1 -13 -4z"/>
<path d="M633 1208 c24 -40 121 -207 217 -371 96 -163 178 -296 182 -295 4 2
102 164 217 360 115 197 213 362 216 368 4 7 -142 10 -434 10 l-441 0 43 -72z
m737 14 c0 -5 -55 -103 -123 -218 -67 -115 -143 -244 -167 -286 -25 -43 -47
-78 -50 -77 -6 0 -340 573 -340 582 0 4 153 7 340 7 187 0 340 -4 340 -8z"/>
<path d="M1623 1230 c2 -8 8 -14 13 -13 5 0 17 -10 27 -23 10 -13 13 -24 7
-24 -5 0 -10 5 -10 10 0 6 -4 10 -10 10 -5 0 -1 -13 8 -30 15 -25 18 -27 25
-12 5 12 6 9 4 -10 -2 -15 0 -25 4 -22 5 3 9 -2 9 -10 0 -28 32 -84 46 -79 8
3 11 -2 8 -14 -4 -15 1 -18 38 -18 40 0 43 -2 44 -27 1 -15 -2 -26 -6 -25 -5
1 -8 -2 -8 -8 0 -5 4 -9 9 -8 5 2 9 -4 9 -12 0 -25 -18 -17 -35 15 -18 34 -18
40 -4 40 5 0 7 -5 3 -11 -4 -7 -1 -10 6 -7 7 2 14 11 16 20 1 13 -3 14 -26 8
-16 -5 -32 -5 -35 -2 -4 4 6 -15 23 -43 16 -27 35 -49 42 -47 8 2 10 -3 6 -14
-7 -18 11 -47 24 -39 5 3 7 -3 6 -12 -4 -22 60 -145 80 -156 8 -4 14 -17 14
-27 0 -10 5 -22 10 -25 6 -3 10 -1 10 4 0 6 7 11 16 11 9 0 14 6 11 13 -2 6 0
20 5 31 8 14 7 17 -3 11 -8 -6 -10 -4 -5 4 5 7 14 10 22 7 7 -3 16 0 20 6 4 7
3 8 -4 4 -7 -4 -12 -2 -12 4 0 7 -8 9 -20 5 -17 -5 -20 -2 -18 19 2 16 8 24
18 23 24 -4 41 -17 35 -28 -4 -5 -3 -9 2 -9 15 0 40 56 38 86 0 16 5 35 12 43
19 19 29 6 12 -16 -12 -16 -11 -16 2 -3 21 20 75 115 61 106 -6 -4 -10 2 -9
14 1 20 17 29 17 9 0 -5 5 -7 11 -4 7 5 3 14 -10 26 -23 22 -26 35 -11 44 6 3
10 -2 10 -13 0 -10 7 -19 15 -19 8 0 15 4 15 9 0 4 -5 8 -11 8 -6 0 -9 6 -6
13 2 6 10 11 17 9 13 -3 50 35 50 51 0 6 7 19 17 29 14 16 14 18 1 18 -9 0
-22 8 -29 18 -13 15 -12 16 4 3 11 -9 17 -10 17 -2 0 6 -7 14 -16 18 -13 5
-13 7 -2 14 7 5 8 9 2 9 -6 0 -11 7 -11 15 0 26 22 10 25 -18 4 -32 12 -33 40
-8 24 20 29 46 10 57 -8 5 -9 2 -5 -9 5 -13 1 -17 -19 -17 -13 0 -27 7 -30 15
-5 12 -51 15 -310 14 -201 0 -306 -4 -310 -11 -4 -7 -10 -5 -16 3 -8 11 -9 11
-5 -1z m122 -88 c12 -8 15 -53 3 -46 -4 3 -8 14 -8 25 0 20 -15 26 -24 10 -4
-5 0 -12 6 -14 9 -4 10 -6 1 -6 -19 -1 -27 20 -12 30 17 11 21 11 34 1z m515
-32 c0 -5 -5 -10 -11 -10 -5 0 -7 5 -4 10 3 6 8 10 11 10 2 0 4 -4 4 -10z
m-27 -51 l-21 -21 -12 22 c-10 19 -10 22 2 17 8 -3 21 -1 29 3 23 15 24 1 2
-21z m-93 -161 c0 -19 -2 -20 -10 -8 -13 19 -13 30 0 30 6 0 10 -10 10 -22z
m-26 -20 c-3 -4 -11 -5 -20 -1 -11 4 -12 8 -3 20 10 11 14 11 20 1 4 -6 6 -15
3 -20z m-197 -53 c0 -8 -6 -15 -14 -15 -7 0 -13 7 -13 15 0 8 6 15 13 15 8 0
14 -7 14 -15z m-8 -47 c-9 -16 -14 -19 -17 -9 -2 7 2 17 9 22 20 13 21 11 8
-13z m68 -24 c-3 -3 -12 -4 -19 -1 -8 3 -5 6 6 6 11 1 17 -2 13 -5z m-12 -29
c14 -13 25 -34 25 -47 -1 -20 -2 -21 -11 -6 -5 10 -8 19 -7 21 5 5 -27 35 -33
31 -4 -2 -12 3 -19 11 -22 26 18 18 45 -10z"/>
<path d="M1493 1177 c-8 -16 -8 -28 -1 -35 6 -6 6 -12 -1 -16 -6 -4 -11 -2
-11 5 0 22 -21 -5 -23 -29 0 -11 -6 -20 -12 -19 -6 1 -10 -19 -10 -50 0 -28
-1 -50 -4 -48 -2 3 -12 0 -22 -5 -11 -7 -19 -6 -21 0 -2 6 -11 -3 -21 -20 -15
-25 -16 -29 -3 -24 9 3 14 10 11 14 -3 5 -1 11 5 15 5 3 10 2 10 -4 0 -5 12
-14 28 -20 l27 -11 -27 5 c-17 3 -28 1 -28 -5 0 -6 -4 -9 -9 -6 -17 11 -42 -6
-36 -22 3 -9 3 -13 -1 -9 -7 6 -47 -48 -49 -65 0 -4 -6 -13 -12 -19 -7 -7 -13
-19 -13 -26 0 -7 -4 -13 -10 -13 -5 0 -10 -9 -10 -19 0 -11 -6 -22 -12 -24
-10 -4 -10 -6 0 -6 14 -1 16 -27 2 -36 -6 -3 -7 1 -4 9 3 9 1 16 -5 16 -6 0
-11 -5 -11 -11 0 -6 -7 -18 -16 -26 -8 -9 -13 -24 -11 -34 3 -12 0 -16 -9 -12
-8 3 -14 -1 -14 -9 0 -7 -11 -29 -24 -49 -22 -33 -23 -35 -5 -36 10 -1 19 3
19 8 0 6 5 7 10 4 6 -3 10 -1 10 4 0 6 -7 11 -16 11 -8 0 -13 4 -10 9 8 12 36
8 45 -7 5 -8 99 -12 326 -14 176 -2 327 -5 335 -8 10 -3 15 2 15 15 0 14 -6
19 -18 17 -15 -3 -17 0 -9 14 12 22 -31 100 -60 107 -16 5 -19 9 -10 19 8 10
8 18 0 28 -8 12 -9 12 -4 -2 3 -10 1 -18 -4 -18 -6 0 -10 8 -10 17 0 9 -5 32
-12 50 -11 30 -27 39 -60 34 -4 0 -5 6 -1 14 4 12 8 13 19 4 12 -10 13 -9 8 5
-3 9 -9 16 -13 16 -5 0 -13 19 -20 42 -7 23 -16 37 -19 31 -10 -14 -62 -11
-62 4 0 9 6 10 24 3 21 -8 24 -6 21 11 -2 10 -12 27 -21 37 -17 16 -17 16 -12
-6 4 -13 2 -20 -4 -16 -5 4 -7 21 -4 39 7 36 -7 57 -18 28 -6 -15 -8 -15 -16
-3 -6 9 -5 18 3 23 8 6 4 7 -10 4 -14 -3 -27 2 -35 12 -11 14 -11 14 4 3 14
-11 17 -10 23 8 4 12 2 27 -3 32 -6 6 -9 16 -6 22 2 6 -6 24 -19 40 l-23 28
-11 -25z m33 -32 c-1 -8 -6 -18 -11 -22 -4 -4 -5 -3 -2 3 4 7 0 14 -8 18 -8 3
-12 12 -9 21 8 19 33 2 30 -20z m23 -53 c0 -14 -2 -14 -8 2 -5 14 -10 16 -15
8 -9 -15 -26 -16 -26 -1 0 5 4 8 9 4 5 -3 12 -1 16 5 9 14 25 2 24 -18z m-62
-4 c-3 -8 -6 -5 -6 6 -1 11 2 17 5 13 3 -3 4 -12 1 -19z m65 -66 c4 -12 -1
-18 -13 -19 -16 -2 -17 2 -9 18 13 24 16 24 22 1z m-122 -62 c0 -5 -7 -7 -15
-4 -8 4 -15 8 -15 10 0 2 7 4 15 4 8 0 15 -4 15 -10z m-85 -101 c-5 -15 -4
-19 4 -15 6 4 11 0 11 -8 0 -13 -3 -14 -19 -4 -15 9 -17 16 -10 30 13 25 22
23 14 -3z m0 -48 c3 -8 3 -12 -1 -9 -4 4 -16 2 -28 -4 -18 -10 -19 -9 -9 4 7
8 11 17 8 20 -3 2 2 5 10 5 8 0 17 -7 20 -16z m385 -16 c10 -12 10 -15 -3 -15
-8 0 -18 6 -20 13 -3 6 -6 1 -6 -13 -1 -20 -3 -22 -11 -10 -5 8 -10 21 -10 28
0 17 35 15 50 -3z m-409 -28 c-10 -9 -11 -8 -5 6 3 10 9 15 12 12 3 -3 0 -11
-7 -18z m36 8 c0 -8 -4 -15 -9 -15 -4 0 -8 7 -8 15 0 8 4 15 8 15 5 0 9 -7 9
-15z m-80 -64 c-2 -31 -17 -32 -17 -2 0 16 8 31 16 31 2 0 2 -13 1 -29z m502
-47 c-9 -11 -7 -14 9 -14 20 0 36 -25 26 -41 -9 -16 -20 -10 -34 19 -18 38
-19 61 -3 55 10 -4 11 -9 2 -19z m66 -54 c3 -5 1 -10 -4 -10 -6 0 -11 5 -11
10 0 6 2 10 4 10 3 0 8 -4 11 -10z m-655 -10 c0 -5 -5 -10 -11 -10 -5 0 -7 5
-4 10 3 6 8 10 11 10 2 0 4 -4 4 -10z m680 -40 c0 -5 -8 -10 -17 -10 -15 0
-16 2 -3 10 19 12 20 12 20 0z"/>
<path d="M1796 627 c3 -10 9 -15 12 -12 3 3 0 11 -7 18 -10 9 -11 8 -5 -6z"/>
<path d="M1571 1084 c0 -11 3 -14 6 -6 3 7 2 16 -1 19 -3 4 -6 -2 -5 -13z"/>
<path d="M1407 1013 c5 -12 3 -14 -8 -8 -12 7 -12 5 -1 -6 11 -12 14 -12 22 1
9 15 4 30 -10 30 -5 0 -6 -7 -3 -17z"/>
<path d="M2011 736 c-10 -12 -8 -13 8 -9 12 3 18 9 15 14 -7 12 -10 11 -23 -5z"/>
</g>
</svg>
